<?xml version="1.0" encoding="iso-8859-1"?>
<!-- Generator: Adobe Illustrator 19.0.0, SVG Export Plug-In . SVG Version: 6.00 Build 0)  -->
<svg version="1.1" id="Layer_1" xmlns="http://www.w3.org/2000/svg" xmlns:xlink="http://www.w3.org/1999/xlink" x="0px" y="0px"
	 viewBox="0 0 511.934 511.934" style="enable-background:new 0 0 511.934 511.934;" xml:space="preserve" fill="#ceac92">
<g>
	<g>
		<path d="M508.805,153.991L456,101.185l7.546-7.538c4.171-4.171,4.171-10.92,0-15.092l-30.168-30.168
			c-1.999-1.999-4.718-3.124-7.546-3.124s-5.546,1.125-7.546,3.124l-7.546,7.538L357.951,3.129c-4.172-4.172-10.921-4.172-15.092,0
			c-4.172,4.163-4.172,10.92,0,15.084l52.805,52.805l-15.092,15.084l-52.804-52.805c-4.156-4.164-10.92-4.164-15.076,0
			c-4.172,4.171-4.172,10.92,0,15.091l52.805,52.798l-15.092,15.092L297.6,63.472c-4.172-4.163-10.92-4.163-15.092,0
			c-4.155,4.164-4.155,10.921,0,15.084l52.806,52.806l-15.076,15.084l-52.806-52.798c-4.171-4.171-10.92-4.171-15.091,0
			c-4.171,4.163-4.171,10.921,0,15.084l52.805,52.806l-15.092,15.083l-52.805-52.805c-4.156-4.164-10.92-4.164-15.076,0
			c-4.171,4.171-4.171,10.92,0,15.092l52.806,52.797l-15.092,15.084l-52.806-52.797c-4.156-4.172-10.92-4.164-15.076,0
			c-4.171,4.163-4.171,10.92,0,15.083l52.79,52.806l-15.076,15.084l-52.805-52.806c-4.171-4.163-10.92-4.163-15.092,0
			c-4.155,4.172-4.155,10.921,0,15.092l52.806,52.798l-15.092,15.091c-2-2-4.703-3.123-7.53-3.123c-2.843,0-5.546,1.123-7.546,3.123
			L12.498,439.1C4.437,447.147,0,457.863,0,469.252c0,11.404,4.437,22.123,12.498,30.184c8.062,8.061,18.779,12.498,30.184,12.498
			c11.389,0,22.106-4.438,30.168-12.498l171.945-171.945c4.171-4.172,4.171-10.936,0-15.092l15.092-15.092l52.805,52.807
			c2.078,2.076,4.813,3.123,7.546,3.123c2.718,0,5.452-1.047,7.53-3.123c4.172-4.172,4.172-10.922,0-15.092l-52.789-52.807
			l7.529-7.529l52.806,52.805c2.093,2.078,4.812,3.125,7.546,3.125c2.734,0,5.452-1.047,7.545-3.125
			c4.156-4.172,4.156-10.936,0-15.092L297.6,259.594l7.546-7.546l52.806,52.806c2.078,2.078,4.812,3.123,7.545,3.123
			c2.719,0,5.453-1.045,7.531-3.123c4.171-4.172,4.171-10.922,0-15.076l-52.79-52.813l7.53-7.546l52.805,52.797
			c2.078,2.094,4.813,3.125,7.547,3.125c2.733,0,5.467-1.031,7.545-3.125c4.172-4.154,4.172-10.912,0-15.076l-52.805-52.805
			l7.545-7.546l52.807,52.806c2.077,2.086,4.811,3.125,7.529,3.125c2.734,0,5.469-1.039,7.546-3.125
			c4.171-4.164,4.171-10.921,0-15.084l-52.79-52.806l7.531-7.546l52.805,52.806c2.078,2.086,4.813,3.124,7.546,3.124
			c2.733,0,5.452-1.038,7.546-3.124c4.156-4.163,4.156-10.921,0-15.084l-52.805-52.806l7.545-7.537l52.806,52.797
			c2.077,2.086,4.812,3.125,7.53,3.125c2.734,0,5.468-1.039,7.546-3.125c4.171-4.163,4.171-10.92,0-15.084l-52.806-52.805
			l7.546-7.538l52.806,52.797c2.078,2.086,4.812,3.125,7.545,3.125c2.734,0,5.453-1.039,7.547-3.125
			c4.155-4.163,4.155-10.92,0-15.084l-52.806-52.805l7.546-7.538l52.805,52.797c2.078,2.086,4.813,3.125,7.531,3.125
			c2.733,0,5.467-1.039,7.545-3.125C512.977,164.911,512.977,158.155,508.805,153.991z M57.758,484.344
			c-4.031,4.031-9.39,6.25-15.076,6.25c-5.702,0-11.061-2.219-15.092-6.25s-6.249-9.373-6.249-15.092
			c0-5.686,2.218-11.045,6.249-15.076l164.415-164.398l20.106,20.105l10.062,10.047L57.758,484.344z M433.38,93.639c0,0,0,0,0,0.008
			l-22.622,22.622l-0.016,0.008l-45.244,45.252c-0.016,0.008-0.016,0.008-0.016,0.008l-22.621,22.621c0,0.008,0,0.008,0,0.008
			l-45.244,45.244c-0.016,0.008-0.016,0.008-0.016,0.008v0.008l-22.621,22.622l-0.016,0.008l-45.245,45.251l-3.015-3.016
			l-12.077-12.076l22.622-22.613c0,0,0-0.008,0.016-0.008l30.152-30.168c0.016,0,0.016,0,0.016,0v-0.008l30.168-30.168
			l30.168-30.176c0,0,0,0,0.016,0l30.152-30.167h0.016c0-0.008,0-0.008,0-0.008l30.168-30.16v-0.008v-0.008l30.167-30.16v-0.008
			c0,0,0,0,0.016,0l7.53-7.538l15.092,15.084L433.38,93.639z"/>
	</g>
</g>
<g>
</g>
<g>
</g>
<g>
</g>
<g>
</g>
<g>
</g>
<g>
</g>
<g>
</g>
<g>
</g>
<g>
</g>
<g>
</g>
<g>
</g>
<g>
</g>
<g>
</g>
<g>
</g>
<g>
</g>
</svg>
